<svg xmlns="http://www.w3.org/2000/svg" xmlns:xlink="http://www.w3.org/1999/xlink" viewBox="0 0 39 100" width="39"
    height="100" preserveAspectRatio="xMidYMid meet"
    style="width: 100%; height: 100%; transform: translate3d(0px, 0px, 0px); content-visibility: visible;">
    <defs>
        <clipPath id="__lottie_element_17">
            <rect width="39" height="100" x="0" y="0"></rect>
        </clipPath>
        <linearGradient id="__lottie_element_25" spreadMethod="pad" gradientUnits="userSpaceOnUse" x1="-15.5" y1="0"
            x2="15.5" y2="0">
            <stop offset="0%" stop-color="#ff7900" stop-opacity="1"></stop>
            <stop offset="50%" stop-color="#ff7900" stop-opacity="0.5"></stop>
            <stop offset="100%" stop-color="#ff7900" stop-opacity="0"></stop>
        </linearGradient>
    </defs>
    <g clip-path="url(#__lottie_element_17)">
        <g transform="matrix(1,0,0,1,19.5,66.48214721679688)" opacity="1" style="display: block;">
            <g opacity="1" transform="matrix(1,0,0,1,0,0)">
                <path fill="#ff7900" fill-opacity="1"
                    d=" M-0.34707358479499817,-7.562161922454834 C-0.15552367269992828,-8.079754829406738 0.15552367269992828,-8.079754829406738 0.34707358479499817,-7.562161922454834 C0.34707358479499817,-7.562161922454834 1.9489021301269531,-3.233813524246216 1.9489021301269531,-3.233813524246216 C2.1404519081115723,-2.7162208557128906 2.7162208557128906,-2.1404519081115723 3.233813524246216,-1.9489021301269531 C3.233813524246216,-1.9489021301269531 7.562161922454834,-0.34707358479499817 7.562161922454834,-0.34707358479499817 C8.079754829406738,-0.15552367269992828 8.079754829406738,0.15552367269992828 7.562161922454834,0.34707358479499817 C7.562161922454834,0.34707358479499817 3.233813524246216,1.9489021301269531 3.233813524246216,1.9489021301269531 C2.7162208557128906,2.1404519081115723 2.1404519081115723,2.7162208557128906 1.9489021301269531,3.233813524246216 C1.9489021301269531,3.233813524246216 0.34707358479499817,7.562161922454834 0.34707358479499817,7.562161922454834 C0.15552367269992828,8.079754829406738 -0.15552367269992828,8.079754829406738 -0.34707358479499817,7.562161922454834 C-0.34707358479499817,7.562161922454834 -1.9489021301269531,3.233813524246216 -1.9489021301269531,3.233813524246216 C-2.1404519081115723,2.7162208557128906 -2.7162208557128906,2.1404519081115723 -3.233813524246216,1.9489021301269531 C-3.233813524246216,1.9489021301269531 -7.562161922454834,0.34707358479499817 -7.562161922454834,0.34707358479499817 C-8.079754829406738,0.15552367269992828 -8.079754829406738,-0.15552367269992828 -7.562161922454834,-0.34707358479499817 C-7.562161922454834,-0.34707358479499817 -3.233813524246216,-1.9489021301269531 -3.233813524246216,-1.9489021301269531 C-2.7162208557128906,-2.1404519081115723 -2.1404519081115723,-2.7162208557128906 -1.9489021301269531,-3.233813524246216 C-1.9489021301269531,-3.233813524246216 -0.34707358479499817,-7.562161922454834 -0.34707358479499817,-7.562161922454834z">
                </path>
            </g>
        </g>
        <g transform="matrix(1,0,0,1,19.46900177001953,46.48215103149414)" opacity="1" style="display: block;">
            <g opacity="1" transform="matrix(0,-1,1,0,0,0)">
                <path fill="#ff7900" fill-opacity="1"
                    d=" M-19.82900047302246,-0.125 C-19.82900047302246,-0.125 -15.5,0 -15.5,0 C-15.5,0 15.5,0 15.5,0">
                </path>
                <path stroke="url(#__lottie_element_25)" stroke-linecap="round" stroke-linejoin="miter" fill-opacity="0"
                    stroke-miterlimit="4" stroke-opacity="1" stroke-width="1"
                    d=" M-19.82900047302246,-0.125 C-19.82900047302246,-0.125 -15.5,0 -15.5,0 C-15.5,0 15.5,0 15.5,0">
                </path>
            </g>
        </g>
    </g>
</svg>