<svg xmlns="http://www.w3.org/2000/svg" xmlns:xlink="http://www.w3.org/1999/xlink" viewBox="0 0 1103.85 574.16"><defs><style>.cls-1{opacity:0.35;}.cls-2{fill:url(#radial-gradient);}</style><radialGradient id="radial-gradient" cx="547.13" cy="253.69" r="212.94" gradientUnits="userSpaceOnUse"><stop offset="0" stop-color="#ff7900"/><stop offset="1" stop-color="#ff7900" stop-opacity="0"/></radialGradient></defs><g id="Layer_2" data-name="Layer 2"><g id="Layer_1-2" data-name="Layer 1"><g class="cls-1"><path class="cls-2" d="M44.47,537.36H0V43.83H44.47ZM.33,537H44.14V44.15H.33Z"/><path class="cls-2" d="M88.61,537.36H44.14V43.83H88.61ZM44.47,537H88.28V44.15H44.47Z"/><path class="cls-2" d="M132.75,537.36H88.28V43.83h44.47ZM88.61,537h43.81V44.15H88.61Z"/><path class="cls-2" d="M176.89,537.36H132.42V43.83h44.47ZM132.75,537h43.81V44.15H132.75Z"/><path class="cls-2" d="M221,537.36H176.56V43.83H221ZM176.89,537H220.7V44.15H176.89Z"/><path class="cls-2" d="M265.17,537.36H220.7V43.83h44.47ZM221,537h43.82V44.15H221Z"/><path class="cls-2" d="M309.31,537.36H264.85V43.83h44.46ZM265.17,537H309V44.15H265.17Z"/><path class="cls-2" d="M353.45,537.36H309V43.83h44.46ZM309.31,537h43.82V44.15H309.31Z"/><path class="cls-2" d="M397.59,537.36H353.13V43.83h44.46ZM353.45,537h43.82V44.15H353.45Z"/><path class="cls-2" d="M441.73,537.36H397.27V43.83h44.46ZM397.59,537h43.82V44.15H397.59Z"/><path class="cls-2" d="M485.88,537.36H441.41V43.83h44.47ZM441.73,537h43.82V44.15H441.73Z"/><path class="cls-2" d="M530,537.36H485.55V43.83H530ZM485.88,537h43.81V44.15H485.88Z"/><path class="cls-2" d="M574.16,537.36H529.69V43.83h44.47ZM530,537h43.81V44.15H530Z"/><path class="cls-2" d="M618.3,537.36H573.83V43.83H618.3ZM574.16,537H618V44.15H574.16Z"/><path class="cls-2" d="M662.44,537.36H618V43.83h44.47ZM618.3,537h43.81V44.15H618.3Z"/><path class="cls-2" d="M706.58,537.36H662.11V43.83h44.47ZM662.44,537h43.81V44.15H662.44Z"/><path class="cls-2" d="M750.72,537.36H706.25V43.83h44.47ZM706.58,537H750.4V44.15H706.58Z"/><path class="cls-2" d="M794.86,537.36H750.4V43.83h44.46ZM750.72,537h43.82V44.15H750.72Z"/><path class="cls-2" d="M839,537.36H794.54V43.83H839ZM794.86,537h43.82V44.15H794.86Z"/><path class="cls-2" d="M883.14,537.36H838.68V43.83h44.46ZM839,537h43.82V44.15H839Z"/><path class="cls-2" d="M927.29,537.36H882.82V43.83h44.47ZM883.14,537H927V44.15H883.14Z"/><path class="cls-2" d="M971.43,537.36H927V43.83h44.47ZM927.29,537H971.1V44.15H927.29Z"/><path class="cls-2" d="M1015.57,537.36H971.1V43.83h44.47ZM971.43,537h43.81V44.15H971.43Z"/><path class="cls-2" d="M1059.71,537.36h-44.47V43.83h44.47Zm-44.14-.32h43.81V44.15h-43.81Z"/><path class="cls-2" d="M1103.85,537.36h-44.47V43.83h44.47Zm-44.14-.32h43.81V44.15h-43.81Z"/><path class="cls-2" d="M1103.85,44.47H0V0H1103.85ZM.33,44.14h1103.2V.33H.33Z"/><path class="cls-2" d="M1103.85,88.61H0V44.14H1103.85ZM.33,88.28h1103.2V44.47H.33Z"/><path class="cls-2" d="M1103.85,132.75H0V88.28H1103.85ZM.33,132.42h1103.2V88.61H.33Z"/><path class="cls-2" d="M1103.85,176.89H0V132.42H1103.85ZM.33,176.56h1103.2V132.75H.33Z"/><path class="cls-2" d="M1103.85,221H0V176.56H1103.85ZM.33,220.7h1103.2V176.89H.33Z"/><path class="cls-2" d="M1103.85,265.17H0V220.7H1103.85ZM.33,264.85h1103.2V221H.33Z"/><path class="cls-2" d="M1103.85,309.31H0V264.85H1103.85ZM.33,309h1103.2V265.17H.33Z"/><path class="cls-2" d="M1103.85,353.45H0V309H1103.85ZM.33,353.13h1103.2V309.31H.33Z"/><path class="cls-2" d="M1103.85,397.59H0V353.13H1103.85ZM.33,397.27h1103.2V353.45H.33Z"/><path class="cls-2" d="M1103.85,441.74H0V397.27H1103.85ZM.33,441.41h1103.2V397.59H.33Z"/><path class="cls-2" d="M1103.85,485.88H0V441.41H1103.85ZM.33,485.55h1103.2V441.74H.33Z"/><path class="cls-2" d="M1103.85,530H0V485.55H1103.85ZM.33,529.69h1103.2V485.88H.33Z"/><path class="cls-2" d="M1103.85,574.16H0V529.69H1103.85ZM.33,573.83h1103.2V530H.33Z"/></g></g></g></svg>