<svg xmlns="http://www.w3.org/2000/svg" viewBox="0 0 37.1 37.11"><defs><style>.cls-1{fill:#fff;}</style></defs><g id="Layer_2" data-name="Layer 2"><g id="Layer_1-2" data-name="Layer 1"><path class="cls-1" d="M37.1,17.39v2.32A1.27,1.27,0,0,0,37,20a18.55,18.55,0,0,1-21,16.94A18.17,18.17,0,0,1,4,30,18,18,0,0,1,.1,16.69,17.89,17.89,0,0,1,4.64,6.29a18.15,18.15,0,0,1,10.75-6c.66-.12,1.33-.19,2-.28h2.32A2.3,2.3,0,0,0,20,.06,17.67,17.67,0,0,1,28,2.62a18.3,18.3,0,0,1,8.77,12.73C36.94,16,37,16.71,37.1,17.39ZM7.84,18.56c.07,1.76.07,3.54.22,5.31A5.45,5.45,0,0,0,12.84,29a28.63,28.63,0,0,0,4,.21c2.32,0,4.64,0,7-.15a5.33,5.33,0,0,0,4.68-3.22,6.47,6.47,0,0,0,.61-2.73q.06-3.75.06-7.5a23,23,0,0,0-.13-2.35,5.51,5.51,0,0,0-4.79-5.1,27.34,27.34,0,0,0-4.05-.21c-2.31,0-4.64,0-6.94.14a5.52,5.52,0,0,0-5.22,5.2C7.91,15,7.91,16.78,7.84,18.56Z"/><path class="cls-1" d="M18.6,9.79c1.59,0,3.19.05,4.77.14a3.71,3.71,0,0,1,3.78,3.79c.09,3.22.09,6.45,0,9.66a3.65,3.65,0,0,1-3.75,3.77q-4.83.13-9.66,0a3.66,3.66,0,0,1-3.8-3.8c-.09-3.23-.06-6.47,0-9.7a3.58,3.58,0,0,1,2-3.25,5.54,5.54,0,0,1,2.56-.54c1.38,0,2.75,0,4.13,0ZM24,18.54A5.47,5.47,0,1,0,18.53,24,5.46,5.46,0,0,0,24,18.54Zm1.5-5.67a1.28,1.28,0,1,0-1.3,1.26A1.27,1.27,0,0,0,25.51,12.87Z"/><path class="cls-1" d="M18.56,22.1a3.55,3.55,0,1,1,3.54-3.55A3.56,3.56,0,0,1,18.56,22.1Z"/></g></g></svg>