<svg xmlns="http://www.w3.org/2000/svg" xmlns:xlink="http://www.w3.org/1999/xlink" viewBox="0 0 634.09 246.32"><defs><style>.cls-1{fill:url(#linear-gradient);}.cls-2{fill:url(#linear-gradient-2);}.cls-3{fill:url(#linear-gradient-3);}.cls-4{fill:url(#linear-gradient-4);}.cls-5{fill:url(#linear-gradient-5);}.cls-6{fill:url(#linear-gradient-6);}.cls-7{fill:#ff6e0b;}.cls-8{fill:#fff;}.cls-9{fill:none;stroke:#ff4800;stroke-miterlimit:10;}</style><linearGradient id="linear-gradient" x1="127.63" y1="51.39" x2="127.63" y2="385.22" gradientUnits="userSpaceOnUse"><stop offset="0" stop-color="#fff"/><stop offset="1"/></linearGradient><linearGradient id="linear-gradient-2" x1="250.55" y1="51.39" x2="250.55" y2="385.22" xlink:href="#linear-gradient"/><linearGradient id="linear-gradient-3" x1="277.7" y1="51.39" x2="277.7" y2="385.22" xlink:href="#linear-gradient"/><linearGradient id="linear-gradient-4" x1="350.15" y1="51.39" x2="350.15" y2="385.22" xlink:href="#linear-gradient"/><linearGradient id="linear-gradient-5" x1="385.38" y1="51.39" x2="385.38" y2="385.22" xlink:href="#linear-gradient"/><linearGradient id="linear-gradient-6" x1="514.74" y1="51.39" x2="514.74" y2="385.22" xlink:href="#linear-gradient"/></defs><g id="Layer_2" data-name="Layer 2"><g id="Layer_1-2" data-name="Layer 1"><polygon points="620.67 43.76 623.87 31.85 543.86 31.85 514.74 140.76 510.69 140.76 536.62 43.76 523.87 43.76 527.05 31.85 447.25 31.85 444.06 43.76 440.56 43.76 443.75 31.85 347.67 31.85 329.01 101.61 352.85 101.61 352.86 101.56 336.79 101.56 353.43 39.35 433.98 39.35 417.26 101.61 436.29 101.61 453 39.35 517.29 39.35 488.18 148.26 520.49 148.26 549.62 39.35 614.09 39.35 576.47 179.45 556.24 194.96 427.29 194.96 415.38 179.45 423.75 148.28 404.73 148.28 396.36 179.45 376.12 194.96 295.58 194.96 308.04 148.28 289.05 148.28 276.55 194.91 255.85 194.91 247.45 226.41 224.34 226.41 232.75 194.91 212.04 194.91 224.59 148.28 205.57 148.28 193.05 194.96 128.58 194.96 120.07 120.85 100.22 194.96 35.74 194.96 64.87 85.87 20.43 39.16 141.81 39.16 150.51 113.28 170.36 39.16 234.83 39.16 218.08 101.61 237.15 101.61 253.9 39.35 274.6 39.35 283 8 306.1 8 297.7 39.35 318.25 39.35 301.56 101.61 322.08 101.61 337.59 43.76 324.84 43.76 328.03 31.85 320.23 31.85 325.44 12.4 312.69 12.4 315.88 0.5 277.24 0.5 268.84 31.85 248.15 31.85 244.99 43.57 241.41 43.57 244.61 31.66 164.6 31.66 159.07 52.31 158.04 43.57 149.88 43.57 148.48 31.66 1.17 31.66 12.49 43.57 12.51 43.57 56.15 89.44 25.98 202.46 38.72 202.46 35.55 214.37 115.54 214.37 120.94 194.2 121.89 202.46 130.09 202.46 131.46 214.37 208.37 214.37 211.58 202.41 215.03 202.41 211.83 214.32 219.81 214.32 214.58 233.91 227.32 233.91 224.15 245.82 262.78 245.82 271.18 214.32 291.87 214.32 295.05 202.46 298.56 202.46 295.38 214.37 388.24 214.37 412.5 195.76 414.05 190.03 423.6 202.46 424.02 202.46 433.16 214.37 568.35 214.37 592.62 195.76 633.44 43.76 620.67 43.76"/><polygon class="cls-1" points="172.54 148.28 185.37 101.61 218.08 101.61 234.83 39.16 170.36 39.16 150.51 113.28 141.81 39.16 20.43 39.16 64.87 85.87 35.74 194.96 100.22 194.96 120.07 120.85 128.58 194.96 193.05 194.96 205.57 148.28 172.54 148.28"/><polygon class="cls-2" points="224.59 148.28 212.04 194.91 232.75 194.91 224.34 226.41 247.45 226.41 255.85 194.91 276.55 194.91 289.05 148.28 224.59 148.28"/><polygon class="cls-3" points="301.56 101.61 318.25 39.35 297.7 39.35 306.1 8 283 8 274.6 39.35 253.9 39.35 237.15 101.61 301.56 101.61"/><polygon class="cls-4" points="308.04 148.28 295.58 194.96 376.12 194.96 396.36 179.45 404.73 148.28 308.04 148.28"/><polygon class="cls-5" points="417.26 101.61 433.98 39.35 353.43 39.35 336.79 101.56 352.86 101.56 352.85 101.61 417.26 101.61"/><polygon class="cls-6" points="471.55 101.61 458.72 148.28 423.75 148.28 415.38 179.45 427.29 194.96 556.24 194.96 576.47 179.45 614.09 39.35 549.62 39.35 520.49 148.26 488.18 148.26 517.29 39.35 453 39.35 436.29 101.61 471.55 101.61"/><path class="cls-7" d="M333.39,133.75a5.89,5.89,0,0,0,4.2-1.41,5.19,5.19,0,0,0,1.49-4v-7.21a5.2,5.2,0,0,0-1.49-4,5.89,5.89,0,0,0-4.2-1.4H329v17.94Z"/><path class="cls-7" d="M301.56,101.61H185.37l-12.83,46.67H458.72l12.83-46.67h-170Zm-82,35.4h-3.44v-21.2h-6.91v-3.27h17.27v3.27h-6.92Zm41.29,0-5.23-10.35h-5.11V137h-3.43V112.52h9.71a7.73,7.73,0,0,1,3.73.88,6.13,6.13,0,0,1,2.49,2.48,7.57,7.57,0,0,1,.88,3.71,7.44,7.44,0,0,1-.89,3.71,6.18,6.18,0,0,1-2.5,2.49,6.61,6.61,0,0,1-1.23.5L265,137Zm28.28-5.37L287.32,137h-3.7l9-24.47h2.93l9,24.47h-3.7L299,131.64Zm115.22-19.12h8.22a7.76,7.76,0,0,1,3.73.88,6.13,6.13,0,0,1,2.49,2.48,8.22,8.22,0,0,1,0,7.42,6.24,6.24,0,0,1-2.5,2.49,6.61,6.61,0,0,1-1.23.5L420.73,137h-4.08l-5.22-10.35h-5.11V137h-3.43V112.52Zm-23.61,3.29H368.48v7.42h10.44v3.26H368.48v7.26h12.29V137H365.05V112.54h15.72Zm-55.24-3.27h7.76a11.23,11.23,0,0,1,5,1,7.14,7.14,0,0,1,3.18,3,9.67,9.67,0,0,1,1.09,4.75v6.93A9.61,9.61,0,0,1,341.5,133a7.19,7.19,0,0,1-3.19,3,11.44,11.44,0,0,1-5,1h-7.74Z"/><polygon class="cls-7" points="294.1 117.27 290.29 128.38 297.92 128.38 294.1 117.27"/><path class="cls-7" d="M258.69,122.93a3.19,3.19,0,0,0,1.17-1.34,5.06,5.06,0,0,0,0-4,3.11,3.11,0,0,0-1.16-1.34,3.25,3.25,0,0,0-1.75-.47h-6.41v7.61H257A3.26,3.26,0,0,0,258.69,122.93Z"/><path class="cls-7" d="M406.32,123.4h6.41a3.29,3.29,0,0,0,1.74-.47,3.19,3.19,0,0,0,1.17-1.34,5.06,5.06,0,0,0,0-4,3.14,3.14,0,0,0-1.17-1.34,3.21,3.21,0,0,0-1.74-.47h-6.41Z"/><polygon class="cls-8" points="226.51 115.81 226.51 112.54 209.24 112.54 209.24 115.81 216.16 115.81 216.16 137.01 219.59 137.01 219.59 115.81 226.51 115.81"/><path class="cls-8" d="M260.53,125.79a6.18,6.18,0,0,0,2.5-2.49,7.44,7.44,0,0,0,.89-3.71,7.57,7.57,0,0,0-.88-3.71,6.13,6.13,0,0,0-2.49-2.48,7.73,7.73,0,0,0-3.73-.88h-9.71V137h3.43V126.66h5.11L260.88,137H265l-5.65-10.72A6.61,6.61,0,0,0,260.53,125.79Zm-10-2.39v-7.61H257a3.25,3.25,0,0,1,1.75.47,3.11,3.11,0,0,1,1.16,1.34,5.06,5.06,0,0,1,0,4,3.19,3.19,0,0,1-1.17,1.34,3.26,3.26,0,0,1-1.74.47Z"/><path class="cls-8" d="M300.89,137h3.7l-9-24.47h-2.93l-9,24.47h3.7l1.84-5.37H299Zm-10.6-8.63,3.81-11.11,3.82,11.11Z"/><path class="cls-8" d="M329,137h4.31a11.44,11.44,0,0,0,5-1,7.19,7.19,0,0,0,3.19-3,9.61,9.61,0,0,0,1.09-4.75v-6.93a9.67,9.67,0,0,0-1.09-4.75,7.14,7.14,0,0,0-3.18-3,11.23,11.23,0,0,0-5-1h-7.76V137H329Zm4.43-21.2a5.89,5.89,0,0,1,4.2,1.4,5.2,5.2,0,0,1,1.49,4v7.21a5.19,5.19,0,0,1-1.49,4,5.89,5.89,0,0,1-4.2,1.41H329V115.81Z"/><polygon class="cls-8" points="368.48 112.54 366.71 112.54 365.05 112.54 365.05 137.01 366.71 137.01 368.48 137.01 380.77 137.01 380.77 133.75 368.48 133.75 368.48 126.49 378.92 126.49 378.92 123.23 368.48 123.23 368.48 115.81 380.77 115.81 380.77 112.54 368.48 112.54"/><path class="cls-8" d="M402.89,137h3.43V126.66h5.11L416.65,137h4.08l-5.65-10.72a6.61,6.61,0,0,0,1.23-.5,6.24,6.24,0,0,0,2.5-2.49,8.22,8.22,0,0,0,0-7.42,6.13,6.13,0,0,0-2.49-2.48,7.76,7.76,0,0,0-3.73-.88h-9.71Zm9.84-21.22a3.21,3.21,0,0,1,1.74.47,3.14,3.14,0,0,1,1.17,1.34,5.06,5.06,0,0,1,0,4,3.19,3.19,0,0,1-1.17,1.34,3.29,3.29,0,0,1-1.74.47h-6.41v-7.61Z"/><polygon class="cls-9" points="633.44 43.76 592.62 195.76 568.35 214.37 433.16 214.37 424.02 202.46 423.6 202.46 414.04 190.02 412.5 195.76 388.23 214.37 295.38 214.37 298.56 202.46 295.05 202.46 291.87 214.32 271.18 214.32 262.78 245.82 224.15 245.82 227.33 233.91 214.58 233.91 219.8 214.32 211.82 214.32 215.02 202.41 211.58 202.41 208.37 214.37 131.45 214.37 130.08 202.46 121.89 202.46 120.94 194.2 115.54 214.37 35.54 214.37 38.72 202.46 25.98 202.46 56.15 89.44 12.51 43.57 12.5 43.57 1.17 31.66 148.48 31.66 149.88 43.57 158.04 43.57 159.07 52.32 164.6 31.66 244.61 31.66 241.42 43.57 245 43.57 248.15 31.85 268.84 31.85 277.24 0.5 315.88 0.5 312.69 12.4 325.44 12.4 320.23 31.85 328.03 31.85 324.84 43.76 337.59 43.76 322.08 101.61 329.01 101.61 347.67 31.85 443.75 31.85 440.55 43.76 444.05 43.76 447.25 31.85 527.05 31.85 523.87 43.76 536.62 43.76 510.69 140.76 514.73 140.76 543.86 31.85 623.87 31.85 620.67 43.76 633.44 43.76"/></g></g></svg>