<svg xmlns="http://www.w3.org/2000/svg" viewBox="0 0 37.1 37.11"><defs><style>.cls-1{fill:#fff;}</style></defs><g id="Layer_2" data-name="Layer 2"><g id="Layer_1-2" data-name="Layer 1"><path class="cls-1" d="M36.81,15.35A18.3,18.3,0,0,0,28,2.62,17.67,17.67,0,0,0,20,.06,2.3,2.3,0,0,1,19.71,0H17.39c-.67.09-1.34.16-2,.28a18.15,18.15,0,0,0-10.75,6A17.89,17.89,0,0,0,.1,16.69,18,18,0,0,0,4,30a18.17,18.17,0,0,0,12.12,7A18.55,18.55,0,0,0,37,20a1.27,1.27,0,0,1,.06-.28V17.39C37,16.71,36.94,16,36.81,15.35ZM16.42,24.16H11.93V17.58H7.52V13.09h8.9Zm1.09-9a2.26,2.26,0,1,1,2.25,2.27A2.26,2.26,0,0,1,17.51,15.16Zm11.27-.22Q26.88,19.41,25,23.87a.43.43,0,0,1-.47.32H20l-.35,0,1.16-2.75c1.14-2.67,2.27-5.33,3.39-8a.49.49,0,0,1,.53-.35c1.49,0,3,0,4.47,0h.4Z"/></g></g></svg>