<svg xmlns="http://www.w3.org/2000/svg" viewBox="0 0 37.07 37.11"><defs><style>.cls-1{fill:#fff;}</style></defs><g id="Layer_2" data-name="Layer 2"><g id="Layer_1-2" data-name="Layer 1"><path class="cls-1" d="M19.71,37.11H17.39L16,36.94a18.17,18.17,0,0,1-9.17-4A18.27,18.27,0,0,1,.29,21.79C.16,21.1.09,20.41,0,19.72V17.4c.12-.81.2-1.63.36-2.43A18.56,18.56,0,0,1,16.73.09,17.65,17.65,0,0,1,27.85,2.53c6.64,4.09,9.72,10.1,9.15,17.88a17.27,17.27,0,0,1-4,9.83,18.29,18.29,0,0,1-11.16,6.58C21.1,36.94,20.4,37,19.71,37.11ZM18.07,10.35v.09h-.39c-2.54.12-5.07.21-7.6.38A2.77,2.77,0,0,0,7.4,13.25,32.59,32.59,0,0,0,7,17.06a30.47,30.47,0,0,0,.32,6.54A2.89,2.89,0,0,0,10,26.26a32.63,32.63,0,0,0,3.42.29,102.91,102.91,0,0,0,13.14-.18c2.08-.17,3-1,3.32-3.09A31.1,31.1,0,0,0,30.11,17a33.59,33.59,0,0,0-.42-3.88,2.72,2.72,0,0,0-2.27-2.26,6.78,6.78,0,0,0-1.1-.16Z"/><path class="cls-1" d="M16.27,15.09l6,3.47-6,3.46Z"/></g></g></svg>